<?xml version="1.0" standalone="no"?>
<!DOCTYPE svg PUBLIC "-//W3C//DTD SVG 20010904//EN"
 "http://www.w3.org/TR/2001/REC-SVG-20010904/DTD/svg10.dtd">
<svg version="1.0" xmlns="http://www.w3.org/2000/svg"
 width="1343.000000pt" height="450.000000pt" viewBox="0 0 1343.000000 450.000000"
 preserveAspectRatio="xMidYMid meet">

<g transform="translate(0.000000,450.000000) scale(0.100000,-0.100000)"
fill="#f34605" stroke="none">
<path d="M3947 3772 c-9 -10 -21 -48 -26 -85 -25 -178 -151 -305 -324 -325
-75 -9 -107 -31 -107 -72 0 -41 32 -63 107 -72 171 -20 299 -148 324 -324 11
-77 29 -104 71 -104 44 0 64 28 71 101 18 173 153 306 331 328 76 9 99 26 99
71 0 46 -23 62 -100 72 -178 21 -311 154 -330 328 -7 72 -27 100 -71 100 -16
0 -36 -8 -45 -18z m144 -418 c25 -22 54 -46 65 -52 19 -12 19 -12 0 -24 -33
-19 -107 -91 -136 -130 l-27 -37 -33 45 c-18 25 -55 63 -84 86 -28 22 -51 44
-51 48 0 4 23 26 51 48 29 23 66 61 84 86 l33 45 27 -37 c15 -20 47 -55 71
-78z"/>
<path d="M1667 3349 c-84 -20 -163 -83 -205 -163 -23 -44 -27 -63 -27 -141 0
-75 4 -97 23 -133 43 -81 100 -131 185 -161 l27 -11 0 -157 c0 -145 -2 -162
-24 -208 -13 -27 -247 -437 -521 -910 -274 -473 -510 -885 -523 -915 -47 -102
-32 -258 34 -355 13 -20 24 -38 24 -40 0 -3 -103 -5 -229 -5 -216 0 -230 -1
-255 -21 -35 -28 -35 -70 0 -98 l27 -21 2044 0 c2068 0 2073 0 2095 34 17 24
8 65 -18 85 -25 20 -39 21 -255 21 -126 0 -229 2 -229 4 0 3 13 26 30 53 16
26 37 79 47 117 14 59 15 79 5 138 -7 38 -22 88 -34 111 -11 23 -246 431 -521
906 -274 475 -508 882 -518 905 -16 34 -19 66 -19 198 l0 157 53 24 c70 32
117 74 153 139 26 48 29 62 29 143 0 78 -4 97 -27 141 -32 60 -93 118 -157
148 -45 21 -57 21 -611 23 -312 1 -582 -3 -603 -8z m1196 -162 c48 -36 71 -81
71 -137 0 -61 -29 -116 -77 -148 l-41 -27 -554 -3 c-547 -2 -555 -2 -598 19
-131 63 -132 248 -2 313 30 14 93 16 599 13 l566 -2 36 -28z m-171 -624 c4
-122 9 -180 21 -210 9 -24 250 -447 535 -940 285 -494 524 -913 530 -932 41
-119 -30 -265 -153 -317 -29 -12 -227 -14 -1378 -14 l-1343 0 -52 26 c-87 43
-142 134 -142 236 0 27 6 63 14 81 7 18 246 435 531 926 284 492 524 913 532
935 11 29 17 92 21 209 l4 167 438 0 438 0 4 -167z"/>
<path d="M2303 2479 c-43 -12 -90 -62 -104 -109 -23 -75 14 -159 84 -190 54
-25 91 -25 143 1 100 48 121 179 41 257 -48 47 -99 60 -164 41z m75 -152 c4
-20 -25 -34 -40 -19 -15 15 -1 44 19 40 10 -2 19 -11 21 -21z"/>
<path d="M1880 2178 c-89 -25 -134 -94 -128 -193 3 -50 10 -70 32 -100 82
-108 257 -93 315 27 24 51 27 114 7 161 -17 43 -76 93 -123 106 -44 13 -56 13
-103 -1z m96 -153 c15 -23 15 -27 0 -50 -19 -29 -56 -33 -80 -9 -21 20 -20 43
1 66 23 26 59 23 79 -7z"/>
<path d="M2342 1800 c-72 -33 -110 -69 -143 -136 -29 -59 -31 -69 -27 -143 4
-66 10 -88 34 -128 123 -199 409 -181 506 32 65 144 -13 329 -160 379 -63 22
-157 20 -210 -4z m178 -133 c101 -53 107 -190 10 -255 -28 -19 -45 -23 -86
-20 -66 6 -108 35 -129 93 -21 55 -14 103 22 146 51 60 114 73 183 36z"/>
<path d="M1655 1541 c-44 -11 -87 -36 -116 -68 -27 -28 -570 -961 -594 -1018
-14 -33 -11 -51 13 -77 14 -17 88 -18 1292 -18 1204 0 1278 1 1292 18 25 29
27 47 8 88 -10 21 -104 188 -209 369 -200 345 -237 395 -307 414 -97 27 -166
8 -250 -68 -90 -83 -181 -116 -344 -127 -172 -12 -234 21 -340 178 -140 207
-198 261 -318 298 -68 21 -80 22 -127 11z m123 -155 c62 -32 114 -88 201 -217
83 -124 140 -180 219 -217 55 -26 64 -27 217 -26 145 1 168 3 240 27 89 29
153 67 219 127 24 22 56 42 72 45 58 11 79 -15 257 -323 92 -160 167 -296 167
-301 0 -8 -342 -11 -1120 -11 -781 0 -1120 3 -1120 11 0 20 492 864 516 887
32 29 73 28 132 -2z"/>
<path d="M6098 2710 c-74 -13 -146 -39 -233 -83 -112 -57 -244 -190 -302 -302
-68 -132 -87 -210 -88 -350 0 -128 11 -191 52 -289 90 -218 291 -390 523 -447
71 -18 269 -18 339 0 358 91 601 415 578 771 -13 201 -80 345 -226 490 -94 94
-189 150 -316 190 -79 24 -249 35 -327 20z m276 -166 c193 -47 362 -214 422
-419 28 -95 24 -240 -10 -340 -156 -458 -734 -558 -1038 -181 -26 33 -62 93
-79 134 -82 197 -54 416 74 589 144 194 384 277 631 217z"/>
<path d="M9450 1975 l0 -745 325 0 325 0 0 75 0 75 -245 0 -245 0 0 670 0 670
-80 0 -80 0 0 -745z"/>
<path d="M11640 1975 l0 -745 75 0 75 0 0 102 0 101 68 -65 c105 -102 217
-148 357 -148 314 1 565 253 565 567 0 254 -175 483 -420 548 -72 19 -220 19
-295 0 -80 -21 -157 -67 -221 -133 l-54 -54 0 286 0 286 -75 0 -75 0 0 -745z
m748 184 c168 -82 264 -262 235 -436 -24 -138 -109 -250 -238 -314 -65 -32
-76 -34 -170 -34 -92 0 -106 3 -167 32 -113 53 -196 146 -233 262 -25 77 -18
207 16 281 50 108 173 211 285 240 22 5 76 8 122 6 70 -3 94 -9 150 -37z"/>
<path d="M7481 2331 c-29 -11 -78 -39 -107 -61 l-54 -41 0 46 0 45 -75 0 -75
0 0 -545 0 -545 74 0 74 0 4 373 3 372 28 57 c65 133 208 195 352 154 46 -14
70 -29 115 -74 90 -90 90 -91 90 -519 l0 -363 75 0 76 0 -3 398 -3 397 -32 68
c-44 93 -119 169 -211 215 -70 34 -83 37 -176 39 -81 3 -112 -1 -155 -16z"/>
<path d="M8250 2002 c0 -383 4 -415 62 -524 36 -69 128 -158 199 -194 161 -81
358 -69 504 31 l50 34 3 -88 c2 -70 -2 -100 -18 -144 -42 -111 -157 -198 -281
-213 -98 -11 -216 37 -283 116 l-26 31 -65 -36 c-36 -20 -65 -41 -65 -46 0 -5
29 -38 64 -72 155 -153 369 -188 562 -92 118 58 196 147 246 281 22 58 22 68
26 662 l3 602 -80 0 -80 0 -3 -367 c-3 -363 -3 -369 -26 -411 -36 -67 -98
-129 -161 -159 -48 -24 -68 -28 -141 -28 -71 0 -94 4 -141 26 -72 34 -134 96
-168 168 l-26 56 -3 358 -3 357 -75 0 -74 0 0 -348z"/>
<path d="M10720 2334 c-266 -57 -456 -310 -437 -584 20 -288 237 -504 528
-527 153 -12 293 42 397 154 l52 56 0 -101 0 -102 80 0 80 0 0 545 0 545 -80
0 -80 0 0 -84 0 -84 -59 57 c-32 31 -82 69 -110 84 -97 53 -242 69 -371 41z
m225 -149 c81 -21 147 -60 199 -115 227 -243 98 -631 -231 -692 -268 -50 -520
198 -475 468 40 243 274 399 507 339z"/>
</g>
</svg>
