<?xml version="1.0" standalone="no"?>
<!DOCTYPE svg PUBLIC "-//W3C//DTD SVG 20010904//EN"
 "http://www.w3.org/TR/2001/REC-SVG-20010904/DTD/svg10.dtd">
<svg version="1.0" xmlns="http://www.w3.org/2000/svg"
 width="500.000000pt" height="500.000000pt" viewBox="0 0 500.000000 500.000000"
 preserveAspectRatio="xMidYMid meet">

<g transform="translate(0.000000,500.000000) scale(0.100000,-0.100000)"
fill="#F34605" stroke="none">
<path d="M4197 4022 c-9 -10 -21 -48 -26 -85 -25 -178 -151 -305 -324 -325
-75 -9 -107 -31 -107 -72 0 -41 32 -63 107 -72 171 -20 299 -148 324 -324 11
-77 29 -104 71 -104 44 0 64 28 71 101 18 173 153 306 331 328 76 9 99 26 99
71 0 46 -23 62 -100 72 -178 21 -311 154 -330 328 -7 72 -27 100 -71 100 -16
0 -36 -8 -45 -18z m144 -418 c25 -22 54 -46 65 -52 19 -12 19 -12 0 -24 -33
-19 -107 -91 -136 -130 l-27 -37 -33 45 c-18 25 -55 63 -84 86 -28 22 -51 44
-51 48 0 4 23 26 51 48 29 23 66 61 84 86 l33 45 27 -37 c15 -20 47 -55 71
-78z"/>
<path d="M1917 3599 c-84 -20 -163 -83 -205 -163 -23 -44 -27 -63 -27 -141 0
-75 4 -97 23 -133 43 -81 100 -131 185 -161 l27 -11 0 -157 c0 -145 -2 -162
-24 -208 -13 -27 -247 -437 -521 -910 -274 -473 -510 -885 -523 -915 -47 -102
-32 -258 34 -355 13 -20 24 -38 24 -40 0 -3 -103 -5 -229 -5 -216 0 -230 -1
-255 -21 -35 -28 -35 -70 0 -98 l27 -21 2044 0 c2068 0 2073 0 2095 34 17 24
8 65 -18 85 -25 20 -39 21 -255 21 -126 0 -229 2 -229 4 0 3 13 26 30 53 16
26 37 79 47 117 14 59 15 79 5 138 -7 38 -22 88 -34 111 -11 23 -246 431 -521
906 -274 475 -508 882 -518 905 -16 34 -19 66 -19 198 l0 157 53 24 c70 32
117 74 153 139 26 48 29 62 29 143 0 78 -4 97 -27 141 -32 60 -93 118 -157
148 -45 21 -57 21 -611 23 -312 1 -582 -3 -603 -8z m1196 -162 c48 -36 71 -81
71 -137 0 -61 -29 -116 -77 -148 l-41 -27 -554 -3 c-547 -2 -555 -2 -598 19
-131 63 -132 248 -2 313 30 14 93 16 599 13 l566 -2 36 -28z m-171 -624 c4
-122 9 -180 21 -210 9 -24 250 -447 535 -940 285 -494 524 -913 530 -932 41
-119 -30 -265 -153 -317 -29 -12 -227 -14 -1378 -14 l-1343 0 -52 26 c-87 43
-142 134 -142 236 0 27 6 63 14 81 7 18 246 435 531 926 284 492 524 913 532
935 11 29 17 92 21 209 l4 167 438 0 438 0 4 -167z"/>
<path d="M2553 2729 c-43 -12 -90 -62 -104 -109 -23 -75 14 -159 84 -190 54
-25 91 -25 143 1 100 48 121 179 41 257 -48 47 -99 60 -164 41z m75 -152 c4
-20 -25 -34 -40 -19 -15 15 -1 44 19 40 10 -2 19 -11 21 -21z"/>
<path d="M2130 2428 c-89 -25 -134 -94 -128 -193 3 -50 10 -70 32 -100 82
-108 257 -93 315 27 24 51 27 114 7 161 -17 43 -76 93 -123 106 -44 13 -56 13
-103 -1z m96 -153 c15 -23 15 -27 0 -50 -19 -29 -56 -33 -80 -9 -21 20 -20 43
1 66 23 26 59 23 79 -7z"/>
<path d="M2592 2050 c-72 -33 -110 -69 -143 -136 -29 -59 -31 -69 -27 -143 4
-66 10 -88 34 -128 123 -199 409 -181 506 32 65 144 -13 329 -160 379 -63 22
-157 20 -210 -4z m178 -133 c101 -53 107 -190 10 -255 -28 -19 -45 -23 -86
-20 -66 6 -108 35 -129 93 -21 55 -14 103 22 146 51 60 114 73 183 36z"/>
<path d="M1905 1791 c-44 -11 -87 -36 -116 -68 -27 -28 -570 -961 -594 -1018
-14 -33 -11 -51 13 -77 14 -17 88 -18 1292 -18 1204 0 1278 1 1292 18 25 29
27 47 8 88 -10 21 -104 188 -209 369 -200 345 -237 395 -307 414 -97 27 -166
8 -250 -68 -90 -83 -181 -116 -344 -127 -172 -12 -234 21 -340 178 -140 207
-198 261 -318 298 -68 21 -80 22 -127 11z m123 -155 c62 -32 114 -88 201 -217
83 -124 140 -180 219 -217 55 -26 64 -27 217 -26 145 1 168 3 240 27 89 29
153 67 219 127 24 22 56 42 72 45 58 11 79 -15 257 -323 92 -160 167 -296 167
-301 0 -8 -342 -11 -1120 -11 -781 0 -1120 3 -1120 11 0 20 492 864 516 887
32 29 73 28 132 -2z"/>
</g>
</svg>
